<svg class="svg-icon" style="width: 120;height: 120;vertical-align: middle;fill: currentColor;overflow: hidden;" viewBox="0 0 1024 1024" version="1.1" xmlns="http://www.w3.org/2000/svg"><path d="M802.816 270.336c20.48 12.288 40.96 16.384 65.536 16.384 73.728 0 135.168-61.44 135.168-135.168S942.08 20.48 868.352 20.48 733.184 81.92 733.184 155.648c0 20.48 4.096 40.96 12.288 57.344L696.32 262.144c-53.248-40.96-118.784-61.44-188.416-61.44-73.728 0-139.264 24.576-192.512 69.632l4.096-4.096-45.056-53.248c8.192-16.384 12.288-36.864 12.288-57.344C286.72 81.92 225.28 20.48 151.552 20.48S20.48 81.92 20.48 155.648 81.92 290.816 155.648 290.816c24.576 0 45.056-8.192 65.536-16.384l45.056 45.056c-45.056 53.248-69.632 122.88-69.632 196.608 0 69.632 24.576 135.168 61.44 188.416l-49.152 49.152c-16.384-8.192-36.864-12.288-57.344-12.288-73.728 0-135.168 61.44-135.168 135.168s61.44 135.168 135.168 135.168S286.72 950.272 286.72 876.544c0-24.576-8.192-45.056-16.384-65.536l45.056-45.056-4.096-4.096c53.248 45.056 122.88 69.632 200.704 69.632 73.728 0 139.264-24.576 192.512-69.632l45.056 45.056c-12.288 20.48-16.384 40.96-16.384 65.536 0 73.728 61.44 135.168 135.168 135.168s135.168-61.44 135.168-135.168S942.08 737.28 868.352 737.28c-20.48 0-40.96 4.096-57.344 12.288l-45.056-45.056-4.096 4.096c40.96-53.248 65.536-118.784 65.536-192.512 0-73.728-24.576-143.36-69.632-200.704l4.096 4.096 40.96-49.152z m-245.76 253.952l20.48 114.688c4.096 12.288-8.192 24.576-20.48 24.576h-94.208c-12.288 0-20.48-12.288-20.48-24.576l20.48-114.688c-24.576-16.384-40.96-45.056-40.96-73.728 0-57.344 53.248-102.4 110.592-86.016 28.672 8.192 53.248 32.768 61.44 61.44 12.288 40.96-4.096 77.824-36.864 98.304z" fill="#38d98b"  /></svg>